<svg width="38" height="37" viewBox="0 0 38 37" fill="none" xmlns="http://www.w3.org/2000/svg">
<path d="M19.1888 0.731445C9.49386 0.731445 1.63477 8.59054 1.63477 18.2855C1.63477 27.9804 9.49386 35.8395 19.1888 35.8395C28.8838 35.8395 36.7429 27.9804 36.7429 18.2855C36.7429 8.59054 28.8838 0.731445 19.1888 0.731445ZM26.3293 15.1111C26.3366 15.2611 26.3384 15.411 26.3384 15.5573C26.3384 20.1287 22.8624 25.3967 16.5027 25.3967C14.6235 25.3998 12.7834 24.8601 11.2035 23.8424C11.4723 23.8754 11.7485 23.8882 12.0282 23.8882C13.6483 23.8882 15.1386 23.3378 16.3217 22.4089C15.6007 22.3947 14.9021 22.156 14.3233 21.7259C13.7444 21.2959 13.3141 20.696 13.0924 20.0098C13.6102 20.1083 14.1436 20.0876 14.6522 19.9495C13.8697 19.7912 13.1659 19.3672 12.6604 18.7493C12.1548 18.1314 11.8785 17.3577 11.8783 16.5593V16.5173C12.3446 16.7751 12.8785 16.9324 13.4453 16.9507C12.7117 16.4623 12.1924 15.7121 11.9936 14.8535C11.7947 13.995 11.9314 13.0929 12.3756 12.3317C13.2441 13.3996 14.3272 14.2732 15.5547 14.8959C16.7822 15.5187 18.1268 15.8767 19.5015 15.9468C19.3267 15.205 19.4019 14.4262 19.7155 13.7315C20.029 13.0368 20.5632 12.4652 21.2351 12.1055C21.907 11.7458 22.6789 11.6181 23.4308 11.7423C24.1828 11.8666 24.8726 12.2358 25.3931 12.7925C26.1669 12.6394 26.9089 12.3556 27.5873 11.9532C27.3294 12.7544 26.7895 13.4347 26.0678 13.8677C26.7532 13.7852 27.4225 13.6009 28.0536 13.321C27.59 14.0156 27.0061 14.6219 26.3293 15.1111Z" fill="white"/>
</svg>
