<svg width="38" height="37" viewBox="0 0 38 37" fill="none" xmlns="http://www.w3.org/2000/svg">
<path d="M24.7228 18.2855C24.7228 19.7403 24.1448 21.1356 23.1161 22.1644C22.0873 23.1931 20.692 23.7711 19.2372 23.7711C17.7823 23.7711 16.387 23.1931 15.3582 22.1644C14.3295 21.1356 13.7515 19.7403 13.7515 18.2855C13.7515 17.9728 13.7844 17.6674 13.8411 17.3712H11.923V24.6799C11.923 25.1882 12.3344 25.5996 12.8427 25.5996H25.6334C25.877 25.5992 26.1105 25.502 26.2826 25.3296C26.4547 25.1572 26.5513 24.9235 26.5513 24.6799V17.3712H24.6332C24.6899 17.6674 24.7228 17.9728 24.7228 18.2855ZM19.2372 21.9425C19.7175 21.9424 20.1932 21.8477 20.6369 21.6637C21.0807 21.4798 21.4839 21.2103 21.8235 20.8705C22.1631 20.5307 22.4324 20.1274 22.6161 19.6836C22.7999 19.2397 22.8944 18.764 22.8942 18.2836C22.8941 17.8033 22.7994 17.3276 22.6154 16.8838C22.4315 16.4401 22.162 16.0369 21.8222 15.6973C21.4824 15.3577 21.0791 15.0884 20.6353 14.9046C20.1914 14.7209 19.7157 14.6264 19.2353 14.6265C18.2652 14.6268 17.3348 15.0124 16.649 15.6986C15.9632 16.3848 15.578 17.3153 15.5782 18.2855C15.5785 19.2556 15.9641 20.186 16.6503 20.8718C17.3365 21.5576 18.267 21.9428 19.2372 21.9425ZM23.6257 14.4455H25.8181C25.9637 14.4455 26.1035 14.3878 26.2066 14.285C26.3098 14.1821 26.368 14.0426 26.3685 13.8969V11.7045C26.3685 11.5585 26.3105 11.4186 26.2073 11.3153C26.1041 11.2121 25.9641 11.1541 25.8181 11.1541H23.6257C23.4797 11.1541 23.3397 11.2121 23.2365 11.3153C23.1333 11.4186 23.0753 11.5585 23.0753 11.7045V13.8969C23.0771 14.1987 23.324 14.4455 23.6257 14.4455ZM19.2372 0.731415C14.5815 0.731415 10.1166 2.58085 6.82457 5.87287C3.53254 9.1649 1.68311 13.6298 1.68311 18.2855C1.68311 22.9411 3.53254 27.406 6.82457 30.698C10.1166 33.9901 14.5815 35.8395 19.2372 35.8395C21.5424 35.8395 23.825 35.3854 25.9548 34.5033C28.0845 33.6211 30.0197 32.3281 31.6497 30.698C33.2798 29.068 34.5728 27.1329 35.455 25.0031C36.3371 22.8733 36.7912 20.5907 36.7912 18.2855C36.7912 15.9802 36.3371 13.6976 35.455 11.5678C34.5728 9.43806 33.2798 7.50292 31.6497 5.87287C30.0197 4.24283 28.0845 2.94981 25.9548 2.06764C23.825 1.18546 21.5424 0.731415 19.2372 0.731415ZM28.3799 25.3967C28.3799 26.5139 27.4656 27.4282 26.3484 27.4282H12.1259C11.0087 27.4282 10.0944 26.5139 10.0944 25.3967V11.1742C10.0944 10.057 11.0087 9.14273 12.1259 9.14273H26.3484C27.4656 9.14273 28.3799 10.057 28.3799 11.1742V25.3967Z" fill="white"/>
</svg>
