<svg width="37" height="38" viewBox="0 0 37 38" fill="none" xmlns="http://www.w3.org/2000/svg">
<g clip-path="url(#clip0_3_322)">
<path d="M18.4271 1.68359C8.73214 1.68359 0.873047 9.54269 0.873047 19.2376C0.873047 28.9326 8.73214 36.7917 18.4271 36.7917C28.122 36.7917 35.9811 28.9326 35.9811 19.2376C35.9811 9.54269 28.122 1.68359 18.4271 1.68359ZM25.5676 16.0633C25.5749 16.2132 25.5767 16.3632 25.5767 16.5094C25.5767 21.0808 22.1006 26.3489 15.741 26.3489C13.8618 26.352 12.0216 25.8123 10.4418 24.7946C10.7106 24.8275 10.9867 24.8403 11.2665 24.8403C12.8866 24.8403 14.3769 24.2899 15.5599 23.361C14.839 23.3468 14.1404 23.1081 13.5615 22.6781C12.9827 22.248 12.5524 21.6481 12.3307 20.962C12.8485 21.0604 13.3819 21.0398 13.8905 20.9016C13.1079 20.7434 12.4042 20.3194 11.8986 19.7015C11.3931 19.0836 11.1168 18.3099 11.1166 17.5115V17.4694C11.5828 17.7273 12.1168 17.8845 12.6836 17.9028C11.95 17.4144 11.4307 16.6643 11.2318 15.8057C11.033 14.9471 11.1697 14.045 11.6139 13.2839C12.4824 14.3518 13.5655 15.2253 14.793 15.8481C16.0205 16.4708 17.3651 16.8288 18.7398 16.8989C18.565 16.1571 18.6402 15.3783 18.9537 14.6837C19.2672 13.989 19.8015 13.4174 20.4734 13.0576C21.1453 12.6979 21.9172 12.5703 22.6691 12.6945C23.4211 12.8187 24.1109 13.1879 24.6314 13.7447C25.4051 13.5916 26.1472 13.3078 26.8256 12.9054C26.5677 13.7065 26.0278 14.3868 25.3061 14.8199C25.9915 14.7373 26.6608 14.553 27.2919 14.2731C26.8283 14.9678 26.2444 15.574 25.5676 16.0633Z" fill="white"/>
</g>
<defs>
<clipPath id="clip0_3_322">
<rect width="36.5709" height="36.5709" fill="white" transform="translate(0.141602 0.952148)"/>
</clipPath>
</defs>
</svg>
