<svg width="38" height="38" viewBox="0 0 38 38" fill="none" xmlns="http://www.w3.org/2000/svg">
<path d="M24.3424 19.2376C24.3424 20.6925 23.7645 22.0878 22.7357 23.1166C21.707 24.1453 20.3117 24.7233 18.8568 24.7233C17.4019 24.7233 16.0066 24.1453 14.9778 23.1166C13.9491 22.0878 13.3711 20.6925 13.3711 19.2376C13.3711 18.925 13.4041 18.6196 13.4607 18.3234H11.5426V25.6321C11.5426 26.1404 11.954 26.5518 12.4624 26.5518H25.253C25.4967 26.5513 25.7301 26.4542 25.9022 26.2818C26.0743 26.1093 26.171 25.8757 26.171 25.6321V18.3234H24.2528C24.3095 18.6196 24.3424 18.925 24.3424 19.2376ZM18.8568 22.8947C19.3372 22.8946 19.8128 22.7999 20.2566 22.6159C20.7003 22.432 21.1035 22.1624 21.4431 21.8227C21.7827 21.4829 22.0521 21.0796 22.2358 20.6357C22.4195 20.1919 22.514 19.7162 22.5139 19.2358C22.5138 18.7554 22.419 18.2798 22.2351 17.836C22.0511 17.3923 21.7816 16.9891 21.4418 16.6495C21.1021 16.3099 20.6987 16.0405 20.2549 15.8568C19.811 15.6731 19.3353 15.5786 18.855 15.5787C17.8848 15.579 16.9545 15.9646 16.2686 16.6508C15.5828 17.3369 15.1976 18.2675 15.1979 19.2376C15.1981 20.2078 15.5837 21.1381 16.2699 21.824C16.9561 22.5098 17.8866 22.895 18.8568 22.8947ZM23.2453 15.3977H25.4377C25.5834 15.3977 25.7231 15.34 25.8263 15.2371C25.9294 15.1343 25.9876 14.9948 25.9881 14.8491V12.6567C25.9881 12.5107 25.9301 12.3707 25.8269 12.2675C25.7237 12.1643 25.5837 12.1063 25.4377 12.1063H23.2453C23.0993 12.1063 22.9593 12.1643 22.8561 12.2675C22.7529 12.3707 22.6949 12.5107 22.6949 12.6567V14.8491C22.6967 15.1508 22.9436 15.3977 23.2453 15.3977ZM18.8568 1.68359C14.2012 1.68359 9.73622 3.53303 6.44419 6.82505C3.15217 10.1171 1.30273 14.582 1.30273 19.2376C1.30273 23.8933 3.15217 28.3582 6.44419 31.6502C9.73622 34.9422 14.2012 36.7917 18.8568 36.7917C21.162 36.7917 23.4447 36.3376 25.5744 35.4555C27.7042 34.5733 29.6393 33.2803 31.2694 31.6502C32.8994 30.0202 34.1924 28.085 35.0746 25.9553C35.9568 23.8255 36.4108 21.5429 36.4108 19.2376C36.4108 16.9324 35.9568 14.6497 35.0746 12.52C34.1924 10.3902 32.8994 8.4551 31.2694 6.82505C29.6393 5.19501 27.7042 3.90199 25.5744 3.01982C23.4447 2.13764 21.162 1.68359 18.8568 1.68359ZM27.9995 26.3489C27.9995 27.4661 27.0852 28.3804 25.968 28.3804H11.7456C10.6283 28.3804 9.71405 27.4661 9.71405 26.3489V12.1264C9.71405 11.0092 10.6283 10.0949 11.7456 10.0949H25.968C27.0852 10.0949 27.9995 11.0092 27.9995 12.1264V26.3489Z" fill="white"/>
</svg>
