<svg width="9" height="12" viewBox="0 0 9 12" fill="none" xmlns="http://www.w3.org/2000/svg">
<path d="M0.543618 0.18869C0.699421 0.108461 0.874338 0.072769 1.04912 0.0855414C1.2239 0.0983139 1.39177 0.159056 1.53425 0.261083L8.202 5.02376C8.32548 5.11187 8.42612 5.2282 8.49557 5.36306C8.56501 5.49793 8.60124 5.64743 8.60124 5.79912C8.60124 5.95081 8.56501 6.10031 8.49557 6.23518C8.42612 6.37004 8.32548 6.48637 8.202 6.57448L1.53425 11.3372C1.39182 11.4391 1.22403 11.4998 1.04934 11.5126C0.874649 11.5253 0.699819 11.4897 0.544069 11.4096C0.38832 11.3294 0.257684 11.2079 0.166521 11.0583C0.0753594 10.9088 0.0272021 10.737 0.0273443 10.5618V1.03645C0.0271608 0.861337 0.0752511 0.689566 0.166331 0.540007C0.25741 0.390448 0.387954 0.26889 0.543618 0.18869Z" fill="#457EFF"/>
</svg>
