<svg width="28" height="28" viewBox="0 0 28 28" fill="none" xmlns="http://www.w3.org/2000/svg">
<g clip-path="url(#clip0_402_53)">
<path d="M13.9507 24.7502C10.9898 24.7502 8.15022 23.574 6.05658 21.4804C3.96294 19.3867 2.78674 16.5472 2.78674 13.5863C2.78674 10.6254 3.96294 7.78584 6.05658 5.6922C8.15022 3.59856 10.9898 2.42236 13.9507 2.42236C16.9115 2.42236 19.7511 3.59856 21.8448 5.6922C23.9384 7.78584 25.1146 10.6254 25.1146 13.5863C25.1146 16.5472 23.9384 19.3867 21.8448 21.4804C19.7511 23.574 16.9115 24.7502 13.9507 24.7502ZM13.9507 26.3451C17.3345 26.3451 20.5798 25.0008 22.9725 22.6081C25.3652 20.2154 26.7094 16.9701 26.7094 13.5863C26.7094 10.2025 25.3652 6.95721 22.9725 4.56447C20.5798 2.17174 17.3345 0.827515 13.9507 0.827515C10.5668 0.827515 7.32159 2.17174 4.92885 4.56447C2.53612 6.95721 1.19189 10.2025 1.19189 13.5863C1.19189 16.9701 2.53612 20.2154 4.92885 22.6081C7.32159 25.0008 10.5668 26.3451 13.9507 26.3451V26.3451Z" fill="#457EFF"/>
</g>
<path d="M13.4834 6.58069V14.6759H21.5786" stroke="#457EFF" stroke-width="1.55677"/>
<defs>
<clipPath id="clip0_402_53">
<rect width="27.0879" height="27.0879" fill="white" transform="translate(0.406738 0.0423584)"/>
</clipPath>
</defs>
</svg>
