<svg width="179" height="164" viewBox="0 0 179 164" fill="none" xmlns="http://www.w3.org/2000/svg">
<path d="M81.5075 163.097C101.235 163.097 117.227 160.524 117.227 157.349C117.227 154.175 101.235 151.602 81.5075 151.602C61.7799 151.602 45.7876 154.175 45.7876 157.349C45.7876 160.524 61.7799 163.097 81.5075 163.097Z" fill="#DCE1EF"/>
<circle cx="123.748" cy="104.577" r="26.3193" transform="rotate(6.91117 123.748 104.577)" fill="#457EFF"/>
<circle cx="119.099" cy="72.4288" r="18.8746" transform="rotate(6.91117 119.099 72.4288)" fill="#457EFF"/>
<circle cx="54.2994" cy="64.5745" r="14.902" transform="rotate(6.91117 54.2994 64.5745)" fill="#457EFF"/>
<circle cx="43.5869" cy="90.2302" r="30.884" transform="rotate(6.91117 43.5869 90.2302)" fill="#457EFF"/>
<circle cx="88.1847" cy="61.3024" r="35.153" transform="rotate(6.91117 88.1847 61.3024)" fill="#457EFF"/>
<path d="M118.738 130.451L36.0949 120.434L63.1802 86.4072L123.195 93.6817L118.738 130.451Z" fill="#457EFF"/>
<circle cx="69.6126" cy="53.3827" r="21.4048" transform="rotate(6.91117 69.6126 53.3827)" fill="#ECF0F6"/>
<circle cx="69.6136" cy="53.3829" r="20.8983" transform="rotate(6.91117 69.6136 53.3829)" fill="#FFFEFE"/>
<circle cx="70.108" cy="60.5164" r="4.65116" transform="rotate(6.91117 70.108 60.5164)" fill="#454545"/>
<path d="M103.103 96.736C102.741 101.496 97.6818 105.605 93.096 105.257C88.5102 104.908 83.3263 99.5091 83.664 95.0642C83.9138 91.7767 89.3081 89.9337 93.8939 90.2821C98.4797 90.6305 103.353 93.4485 103.103 96.736Z" fill="white"/>
<circle cx="131.773" cy="66.1914" r="15.6619" transform="rotate(6.91117 131.773 66.1914)" fill="#ECF0F6"/>
<circle cx="131.77" cy="66.1896" r="15.2912" transform="rotate(6.91117 131.77 66.1896)" fill="#FFFEFE"/>
<circle cx="138.647" cy="65.6938" r="3.77811" transform="rotate(6.91117 138.647 65.6938)" fill="#454545"/>
<ellipse cx="128.42" cy="94.9115" rx="6.54152" ry="3.63755" transform="rotate(6.91117 128.42 94.9115)" fill="#FFC6C6"/>
<path fill-rule="evenodd" clip-rule="evenodd" d="M132.839 94.3771C133.023 94.4579 133.107 94.6728 133.026 94.8571L131.846 97.5495C131.765 97.7338 131.551 97.8178 131.366 97.737C131.182 97.6562 131.098 97.4413 131.179 97.2569L132.359 94.5645C132.44 94.3802 132.654 94.2963 132.839 94.3771Z" fill="black"/>
<path fill-rule="evenodd" clip-rule="evenodd" d="M134.177 94.5386C134.361 94.6194 134.445 94.8343 134.364 95.0186L133.184 97.711C133.103 97.8953 132.888 97.9793 132.704 97.8985C132.52 97.8177 132.436 97.6028 132.517 97.4184L133.697 94.726C133.777 94.5417 133.992 94.4578 134.177 94.5386Z" fill="black"/>
<path fill-rule="evenodd" clip-rule="evenodd" d="M135.516 94.7004C135.7 94.7812 135.784 94.9961 135.703 95.1805L134.523 97.8729C134.442 98.0572 134.227 98.1411 134.043 98.0604C133.859 97.9796 133.775 97.7646 133.855 97.5803L135.036 94.8879C135.116 94.7036 135.331 94.6196 135.516 94.7004Z" fill="black"/>
<ellipse cx="58.9361" cy="86.4631" rx="6.54152" ry="3.63755" transform="rotate(10.9665 58.9361 86.4631)" fill="#FFC6C6"/>
<path fill-rule="evenodd" clip-rule="evenodd" d="M54.2629 85.3615C54.4472 85.4423 54.5312 85.6572 54.4504 85.8415L53.2967 88.4738C53.2159 88.6582 53.001 88.7421 52.8166 88.6613C52.6323 88.5805 52.5484 88.3656 52.6292 88.1813L53.7828 85.549C53.8636 85.3646 54.0786 85.2807 54.2629 85.3615Z" fill="black"/>
<path fill-rule="evenodd" clip-rule="evenodd" d="M55.5749 85.5205C55.7593 85.6013 55.8432 85.8163 55.7624 86.0006L54.6087 88.6329C54.5279 88.8172 54.313 88.9012 54.1287 88.8204C53.9443 88.7396 53.8604 88.5247 53.9412 88.3403L55.0949 85.708C55.1756 85.5237 55.3906 85.4397 55.5749 85.5205Z" fill="black"/>
<path fill-rule="evenodd" clip-rule="evenodd" d="M56.8825 85.6791C57.0669 85.7599 57.1508 85.9748 57.07 86.1592L55.9163 88.7915C55.8355 88.9758 55.6206 89.0597 55.4363 88.979C55.2519 88.8982 55.168 88.6832 55.2488 88.4989L56.4025 85.8666C56.4833 85.6823 56.6982 85.5983 56.8825 85.6791Z" fill="black"/>
<path d="M146.354 106.125C148.341 106.739 150.966 106.752 154.949 109.979C158.932 113.205 160.793 117.047 162.15 120.263" stroke="#575A60" stroke-width="1.62464" stroke-linecap="round"/>
<path d="M22.4341 72.8341C20.0596 70.2206 15.3114 59.9478 14.7597 51.9511C14.28 44.9973 16.6713 37.2414 17.9056 33.9365" stroke="#404247" stroke-width="1.62464" stroke-linecap="round"/>
<circle cx="19.6066" cy="28.8247" r="5.29775" transform="rotate(6.91117 19.6066 28.8247)" fill="#404247"/>
<circle cx="5.29462" cy="5.29462" r="5.29462" transform="matrix(0.992734 0.12033 0.12033 -0.992734 156.502 129.177)" fill="#575A60"/>
<path fill-rule="evenodd" clip-rule="evenodd" d="M66.6457 79.9766C82.1835 81.3129 93.3936 70.9653 95.0011 57.7032C96.8047 42.8239 86.6325 29.9392 72.9124 28.2761C59.1923 26.6131 45.519 35.843 43.856 49.563C42.193 63.2831 51.3879 78.6643 66.6457 79.9766ZM65.5684 84.2545C83.0181 86.3696 98.8785 73.9385 100.994 56.4887C103.109 39.039 90.6776 23.1786 73.2278 21.0635C55.7781 18.9484 39.9177 31.3796 37.8026 48.8293C35.6875 66.279 48.1187 82.1394 65.5684 84.2545Z" fill="#404247"/>
<path fill-rule="evenodd" clip-rule="evenodd" d="M128.546 84.9037C138.655 86.1289 148.022 78.5167 149.247 68.4082C150.472 58.2997 144.024 47.8086 132.602 46.4241C120.034 44.9007 112.686 53.2273 111.46 63.3358C110.235 73.4443 118.438 83.6784 128.546 84.9037ZM127.844 90.6921C141.15 92.3048 153.243 82.8261 154.856 69.5208C156.469 56.2154 146.99 44.1219 133.685 42.5091C120.379 40.8964 108.286 50.3751 106.673 63.6805C105.06 76.9858 114.539 89.0793 127.844 90.6921Z" fill="#404247"/>
<path fill-rule="evenodd" clip-rule="evenodd" d="M105.053 53.2218C101.285 54.4384 99.9098 59.3357 100.894 62.3837C101.878 65.4317 105.147 67.1048 108.195 66.1206C108.303 66.0858 108.378 66.0611 108.43 66.0433L108.436 66.0388C108.522 65.9762 108.656 65.8788 108.822 65.7628L112.118 70.4985C112.005 70.5765 111.927 70.6332 111.844 70.6941C111.821 70.7108 111.797 70.7277 111.773 70.7455C111.673 70.8177 111.492 70.9489 111.272 71.0755C110.821 71.3354 110.364 71.4828 110 71.6005L109.968 71.6108C103.888 73.574 97.3671 70.2366 95.4039 64.1564C93.4406 58.0763 96.7781 51.5558 102.858 49.5926C104.539 49.05 106.318 49.171 107.112 49.2673L106.841 53.0486C106.63 53.0231 106.297 53.0306 105.934 53.0427C105.557 53.0553 105.254 53.157 105.053 53.2218Z" fill="#404247"/>
<path fill-rule="evenodd" clip-rule="evenodd" d="M31.2561 48.4562L34.7232 48.8764L30.2205 59.9251L42.6544 60.8863L41.9528 66.6747L23.0555 64.3841L31.2561 48.4562Z" fill="#404247"/>
<path d="M108.408 11.4069L80.6193 14.492L91.1997 24.6572L97.4515 27.3758L108.485 31.9719L126.613 31.8436L108.408 11.4069Z" fill="#333539"/>
<path d="M90.8017 26.2558L92.5352 19.3983C94.4559 19.2006 98.1663 18.1489 103.747 19.2817C109.072 20.3627 113.277 23.8983 114.128 25.1875L111.662 35.1406C111.662 35.1406 107.271 31.3483 101.455 29.1096C95.5533 26.8379 90.8017 26.2558 90.8017 26.2558Z" fill="#45484F"/>
<rect x="123.335" y="29.978" width="0.494671" height="5.85694" transform="rotate(0.273212 123.335 29.978)" fill="#333539"/>
<path d="M122.962 37.0065L124.032 37.0116L124.726 40.7292C124.726 40.7292 123.926 41.1134 123.379 41.1139C122.821 41.1143 122.113 40.6118 122.113 40.6118L122.962 37.0065Z" fill="#333539"/>
<circle cx="123.5" cy="36.3738" r="0.915725" transform="rotate(0.273212 123.5 36.3738)" fill="#333539"/>
<path d="M80.6347 14.5028L80.7613 13.8731L108.616 10.9731L126.756 31.2087L126.584 31.8789L108.291 11.6932L80.6347 14.5028Z" fill="#53565E"/>
</svg>
